<svg width="165" height="35" viewBox="0 0 165 35" fill="none" xmlns="http://www.w3.org/2000/svg">
    <path
        d="M2.64283 19.8949L9.57927 31.4651H10.84L17.7813 19.8073L17.8056 33.7957H20.4391L20.4099 14.6109H18.161L10.2656 28.0885L2.26315 14.6109H0.0142822V33.7957H2.64283V19.8949Z"
        fill="#679674" />
    <path d="M34.3367 14.6109H31.5962V33.7957H34.3367V14.6109Z" fill="#679674" />
    <path
        d="M61.999 14.6109H59.2585V28.9059L47.7416 14.6109H45.4976V33.7957H48.2381V19.5008L59.7501 33.7957H61.999V14.6109Z"
        fill="#679674" />
    <path d="M70.3912 16.995H76.9675V33.7957H79.6836V16.995H86.2647V14.6109H70.3912V16.995Z"
        fill="#679674" />
    <path
        d="M141.922 27.4121C141.922 27.597 141.883 27.8987 141.844 28.2198C141.78 28.6206 141.744 29.0255 141.737 29.4313C141.737 30.2293 142.375 30.7353 143.373 30.7353C144.833 30.7353 146.838 29.8303 150.221 27.6554C149.997 28.0868 149.867 28.5613 149.842 29.0469C149.842 30.3071 150.918 31.0272 152.806 31.0272C154.695 31.0272 160.536 29.3097 164.805 26.186C164.886 26.1255 164.946 26.0414 164.977 25.9453C165.008 25.8492 165.008 25.7459 164.977 25.6497C164.947 25.5535 164.887 25.4691 164.807 25.4083C164.726 25.3475 164.628 25.3132 164.528 25.3102C164.426 25.3062 164.327 25.3371 164.245 25.3978C160.108 28.4193 154.534 30.0541 152.806 30.0541C151.463 30.0541 150.796 29.6941 150.796 29.0323C150.796 28.3706 151.283 27.4608 152.076 26.5996C152.541 26.7791 153.038 26.8602 153.536 26.838C154.758 26.838 156.17 25.8649 156.17 24.9745C156.167 24.8207 156.132 24.6692 156.066 24.53C156.001 24.3908 155.906 24.267 155.79 24.1668C155.673 24.0666 155.536 23.9923 155.389 23.9487C155.241 23.9051 155.086 23.8932 154.933 23.9138C154.013 23.9138 152.918 24.5269 151.969 25.3735C151.933 25.3826 151.897 25.394 151.862 25.4075C147.311 28.5166 144.852 29.7865 143.358 29.7865C142.871 29.7865 142.681 29.6649 142.681 29.3C142.681 29.0615 142.735 28.7015 142.774 28.3268C142.829 28.0053 142.86 27.68 142.866 27.3537C142.885 27.2224 142.874 27.0886 142.834 26.9621C142.794 26.8356 142.726 26.7196 142.636 26.6226C142.545 26.5256 142.434 26.4501 142.311 26.4015C142.187 26.3529 142.054 26.3324 141.922 26.3417C141.046 26.3417 139.41 27.3391 138.052 28.1468L137.123 28.7161C136.899 28.8523 136.738 28.6918 136.884 28.4777C137.054 28.1857 137.283 27.85 137.546 27.4413C139.006 25.2178 139.493 24.3274 139.493 23.6219C139.494 23.4785 139.464 23.3366 139.407 23.2052C139.35 23.0737 139.266 22.9556 139.161 22.8582C139.056 22.7608 138.931 22.6863 138.796 22.6393C138.66 22.5924 138.516 22.5741 138.373 22.5855C136.976 22.5855 135.127 23.797 130.498 27.5873C129.66 28.2636 128.969 28.8231 128.424 29.2464C127.879 29.6697 127.84 29.4216 128.147 28.9837C129.288 27.3272 130.603 25.7973 132.07 24.4198C132.12 24.3743 132.161 24.3188 132.188 24.2568C132.216 24.1948 132.23 24.1277 132.23 24.0598C132.23 23.9307 132.179 23.807 132.088 23.7157C131.997 23.6245 131.873 23.5732 131.744 23.5732C131.685 23.5709 131.627 23.5805 131.573 23.6014C131.519 23.6223 131.469 23.6541 131.427 23.6948C130.856 24.2219 130.312 24.7773 129.797 25.3589C129.771 25.364 129.747 25.3722 129.724 25.3832C126.915 26.9645 122.792 26.765 119.56 24.8966C119.611 24.8723 119.665 24.8543 119.721 24.8431C119.827 24.8048 119.916 24.7308 119.974 24.6338C120.032 24.5367 120.054 24.4226 120.037 24.311C120.019 24.1995 119.964 24.0974 119.879 24.0222C119.795 23.9471 119.687 23.9036 119.575 23.8992C119.522 23.9033 119.47 23.9114 119.419 23.9235C119.123 24.0214 118.834 24.1367 118.552 24.269C118.535 24.2765 118.517 24.2804 118.499 24.2804C118.48 24.2804 118.462 24.2765 118.445 24.269C118.29 24.2288 118.125 24.2491 117.984 24.3259C117.843 24.4027 117.736 24.5302 117.686 24.6826C117.667 24.7119 117.646 24.7395 117.623 24.7653C117.321 24.9446 117.03 25.1411 116.751 25.354H116.673C113.563 27.3635 107.804 30.1563 105.195 30.1563C104.373 30.1563 104.013 29.8741 104.013 29.2513C104.089 28.6152 104.268 27.9956 104.543 27.417C104.863 26.7513 105.066 26.0352 105.142 25.3005C105.154 25.1681 105.137 25.0347 105.093 24.9093C105.049 24.7839 104.978 24.6695 104.886 24.5739C104.794 24.4783 104.682 24.4038 104.558 24.3554C104.434 24.3069 104.301 24.2858 104.168 24.2933C102.903 24.2933 100.561 25.9281 96.969 29.3194C95.9176 30.2925 94.9197 31.2656 94.1506 32.0441C93.9657 32.229 93.8294 32.2144 94.0192 31.9371C95.322 29.9131 96.7375 27.9638 98.259 26.0984C111.149 17.9584 123.284 4.20348 123.284 1.11386C123.295 0.959904 123.272 0.805309 123.216 0.661378C123.16 0.517448 123.073 0.387813 122.961 0.281955C122.848 0.176097 122.714 0.0966918 122.566 0.0495324C122.419 0.00237297 122.264 -0.0113457 122.111 0.00938217C118.703 0.00938217 92.2084 29.9909 92.2084 33.82C92.2065 33.9007 92.2208 33.9809 92.2506 34.0558C92.2804 34.1308 92.3251 34.199 92.3819 34.2562C92.4388 34.3135 92.5066 34.3587 92.5813 34.3891C92.6561 34.4195 92.7362 34.4344 92.8169 34.4331C93.0992 34.4331 93.3669 34.1801 94.8126 32.7302C94.9733 32.5696 95.1485 32.4139 95.3335 32.2436C96.0101 31.577 96.7938 30.818 97.6359 30.0249C100.557 27.2564 102.781 25.5681 103.901 25.3053C104.071 25.2616 104.178 25.3686 104.154 25.5535C104.045 26.0705 103.882 26.5745 103.667 27.0569C103.338 27.7528 103.13 28.5 103.054 29.2659C103.054 30.4336 103.852 31.1294 105.195 31.1294C107.357 31.1294 111.387 29.4216 114.585 27.6992C114.176 28.3307 113.943 29.0595 113.909 29.8108C113.909 30.7256 114.395 31.3386 115.184 31.3386C117.131 31.3386 119.112 28.0787 118.776 25.5827C120.212 26.4602 121.813 27.0316 123.48 27.261C125.147 27.4904 126.844 27.3729 128.463 26.9158C127.236 28.4631 126.277 29.9422 126.292 30.4482C126.283 30.5379 126.292 30.6285 126.319 30.7145C126.345 30.8005 126.39 30.8802 126.448 30.9485C126.507 31.0168 126.579 31.0725 126.66 31.1119C126.741 31.1514 126.83 31.1739 126.92 31.1781C127.407 31.2072 128.171 30.6915 131.082 28.3074C133.754 26.1276 136.894 23.51 138.276 23.51C138.437 23.51 138.505 23.5586 138.505 23.6803C138.505 24.0792 138.018 24.9696 136.733 26.8964C135.604 28.6139 135.297 29.1832 135.297 29.6357C135.286 29.7154 135.292 29.7966 135.315 29.8738C135.338 29.9509 135.378 30.0222 135.431 30.0827C135.484 30.1432 135.55 30.1915 135.623 30.2244C135.697 30.2572 135.776 30.2738 135.857 30.2731C136.271 30.2731 136.83 29.9957 138.544 28.9594C140.608 27.7235 141.416 27.271 141.791 27.271C141.912 27.2905 141.922 27.344 141.922 27.4121ZM154.948 24.8723C155.186 24.8723 155.225 24.9112 155.225 24.9745C155.225 25.2713 154.549 25.8795 153.551 25.8795C153.325 25.8814 153.099 25.8684 152.874 25.8406C153.447 25.3079 154.172 24.9691 154.948 24.8723ZM122.13 0.982491C122.291 0.982491 122.344 1.03601 122.344 1.16738C122.344 3.678 112.02 15.5256 100.235 23.6754C109.294 12.5965 120.48 0.982491 122.13 0.982491ZM115.198 30.3898C114.989 30.3898 114.882 30.2195 114.882 29.8206C114.882 28.5555 116.094 26.9012 117.847 25.753C118.061 27.6749 116.503 30.3996 115.198 30.3996V30.3898Z"
        fill="#3D3D3D" />
</svg>